<?xml version="1.0" standalone="no"?>
<!DOCTYPE svg PUBLIC "-//W3C//DTD SVG 1.1//EN" "http://www.w3.org/Graphics/SVG/1.1/DTD/svg11.dtd" >
<!--
2013-9-30: Created.
-->
<svg>
<metadata>
Created by iconfont
</metadata>
<defs>

<font id="iconfont" horiz-adv-x="1024" >
  <font-face
    font-family="iconfont"
    font-weight="500"
    font-stretch="normal"
    units-per-em="1024"
    ascent="896"
    descent="-128"
  />
    <missing-glyph />
    
    <glyph glyph-name="x" unicode="x" horiz-adv-x="1001"
d="M281 543q-27 -1 -53 -1h-83q-18 0 -36.5 -6t-32.5 -18.5t-23 -32t-9 -45.5v-76h912v41q0 16 -0.5 30t-0.5 18q0 13 -5 29t-17 29.5t-31.5 22.5t-49.5 9h-133v-97h-438v97zM955 310v-52q0 -23 0.5 -52t0.5 -58t-10.5 -47.5t-26 -30t-33 -16t-31.5 -4.5q-14 -1 -29.5 -0.5
t-29.5 0.5h-32l-45 128h-439l-44 -128h-29h-34q-20 0 -45 1q-25 0 -41 9.5t-25.5 23t-13.5 29.5t-4 30v167h911zM163 247q-12 0 -21 -8.5t-9 -21.5t9 -21.5t21 -8.5q13 0 22 8.5t9 21.5t-9 21.5t-22 8.5zM316 123q-8 -26 -14 -48q-5 -19 -10.5 -37t-7.5 -25t-3 -15t1 -14.5
t9.5 -10.5t21.5 -4h37h67h81h80h64h36q23 0 34 12t2 38q-5 13 -9.5 30.5t-9.5 34.5q-5 19 -11 39h-368zM336 498v228q0 11 2.5 23t10 21.5t20.5 15.5t34 6h188q31 0 51.5 -14.5t20.5 -52.5v-227h-327z" />
    

    
    <glyph glyph-name="china" unicode="&#58961;" d="M464.367655 5.333864l99.419314 0 0-27.542286-99.419314 0 0 27.542286ZM464.367655-45.889775l99.419314 0 0-27.517727-99.419314 0 0 27.517727ZM249.418095-97.075551l529.305131 0 0-27.554566-529.305131 0 0 27.554566ZM1021.719562 194.734538c-1.399883 0.719384-3.027963 0.454348-4.176113-0.706081-40.47483-40.537252-99.04069-56.458873-136.865157-57.784054-33.270754-1.14815-63.398936 8.93244-94.031607 20.211321-6.598278 2.447748-20.678972 9.374508-38.405705 18.609847l0 75.762521c1.27504-0.036839 2.788509-0.086981 4.541433-0.150426 3.206018-0.100284 7.129374-0.227174 11.608386-0.227174 17.22122 0 32.285311 1.9934 46.012963 6.118348 31.213909 9.374508 148.572804 85.932138 153.557328 89.187275 1.161453 0.744967 1.905396 2.219551 1.905396 3.809769l0 40.865733c0 1.716084-0.858554 3.255137-2.145873 3.948939-1.274016 0.719384-2.775206 0.442068-3.859911-0.669242-37.572734-39.414685-91.949178-54.894238-127.086443-56.169277-30.873148-1.122567-58.857503 8.680706-87.295182 19.644409-6.182816 2.408863-19.467377 9.259898-36.210713 18.394952l0 70.400397c14.548344 0.239454 27.479865 1.867534 39.288818 5.097088 28.91761 7.922437 137.672546 72.620971 142.290727 75.383898 1.059122 0.630357 1.740644 1.867534 1.740644 3.217275l0 34.531468c0 1.451048-0.756223 2.750647-1.967818 3.343141-1.172709 0.593518-2.586918 0.366344-3.582595-0.579191-34.81083-33.308617-85.188194-46.379307-117.750821-47.464011-28.628014-0.945535-54.555523 7.330966-80.885192 16.616446-21.852704 7.696286-138.253784 69.77004-167.094646 85.225033l0 24.237007c5.298679 2.762927 8.956999 8.377808 8.956999 14.925944 0 6.534833-3.65832 12.161994-8.956999 14.912641l0 12.339026c2.473331 2.056845 4.062526 5.110391 4.062526 8.579399 0 3.444449-1.589195 6.510274-4.062526 8.579399l0 18.306948c0 3.973498-3.218298 7.216355-7.217379 7.216355-3.986801 0-7.229658-3.242857-7.229658-7.216355l0-18.306948c-2.447748-2.069125-4.049223-5.134951-4.049223-8.579399 0-3.469008 1.601474-6.522554 4.049223-8.579399l0-12.339026c-5.298679-2.750647-8.970302-8.377808-8.970302-14.912641 0-6.548136 3.671623-12.163017 8.970302-14.925944l0-24.223704c-28.79072-15.430434-145.241942-77.54205-167.094646-85.238336-26.330692-9.29776-52.270481-17.599843-80.884169-16.616446-32.57593 1.085728-82.942037 14.155395-117.764124 47.464011-0.9967 0.945535-2.397606 1.172709-3.570315 0.579191-1.211595-0.593518-1.981121-1.892093-1.981121-3.343141l0-34.531468c0-1.349741 0.681522-2.586918 1.766226-3.217275 4.591575-2.762927 113.359814-67.461461 142.265144-75.383898 11.821233-3.242857 24.752754-4.869914 39.300075-5.097088l0-70.400397c-16.742313-9.134031-30.040177-15.985066-36.234249-18.394952-28.4254-10.963703-56.384172-20.805862-87.269599-19.644409-35.137265 1.27504-89.514733 16.754592-127.087467 56.169277-1.072425 1.110287-2.599198 1.387603-3.860934 0.669242-1.299599-0.693802-2.131547-2.232854-2.131547-3.948939l0-40.865733c0-1.589195 0.731664-3.064802 1.892093-3.809769 4.971222-3.25616 122.331139-79.812767 153.544025-89.187275 13.726629-4.124947 28.79072-6.118348 46.025243-6.118348 4.492314 0 8.402367 0.12689 11.607362 0.227174 1.753947 0.064468 3.267417 0.113587 4.541433 0.150426l0-75.762521c-17.739013-9.234315-31.818683-16.162098-38.404682-18.609847-30.608112-11.277858-60.737316-21.38403-94.019327-20.211321-37.85005 1.325182-96.41591 17.246803-136.915299 57.784054-1.134847 1.161453-2.750647 1.426489-4.13825 0.706081-1.387603-0.731664-2.282996-2.308579-2.282996-4.062526l0-42.038442c0-1.65264 0.795109-3.15383 2.031263-3.936659 5.362124-3.344165 131.768069-82.071204 165.378561-91.723028 14.799054-4.26514 31.036877-6.308683 49.570999-6.308683 4.832052 0 9.05933 0.113587 12.502755 0.252757 4.036943 0.101307 7.078209 0.277316 8.28878 0 0.479931-0.113587 1.198292-0.265036 8.553817-0.405229l0-120.576169 197.525726 0L448.015222 46.299881c42.883693 0 89.261976 0 132.13339 0l0-125.32124 197.551308 0L777.699919 46.513752c7.317663 0.140193 8.049327 0.290619 8.529257 0.405229 1.211595 0.277316 4.264117 0.101307 8.276501 0 3.432169-0.13917 7.671727-0.252757 12.491499-0.252757 18.558681 0 34.783201 2.043542 49.582255 6.308683 33.622772 9.651824 160.003134 88.378863 165.405167 91.723028 1.236154 0.782829 1.992377 2.282996 1.992377 3.936659l0 42.038442C1023.977999 192.425959 1023.095909 194.002874 1021.719562 194.734538zM414.50706 445.628752c40.057321 0.074701 84.392062 0.301875 99.204419 0.378623l-0.01228 3.683902 0.743944-3.683902c14.812357-0.075725 59.172681-0.302899 99.204419-0.378623l0-72.355935c-61.001329-0.63138-138.139174-0.63138-199.140503 0L414.50706 445.628752zM342.680175 173.639081c-11.07729 0.201591-21.145599 0.404206-29.92659 0.630357l0 75.851549c5.980201-0.024559 13.146415-0.038886 21.851681-0.038886 2.196015 0 4.995781 0 8.074909 0L342.680175 173.639081zM351.739505 445.716756c6.055926-0.063445 15.417131-0.113587 29.938869-0.125867l0-71.877027c-11.05273 0.202615-21.069875 0.416486-29.938869 0.64366L351.739505 445.716756zM652.633482 173.210315c-81.528851-0.918929-195.571211-0.918929-277.099039 0l0 76.872808c71.737858 0 205.361181 0 277.099039 0L652.633482 173.210315zM676.416142 374.357522c-8.857738-0.227174-18.87386-0.441045-29.92659-0.64366l0 71.877027c14.520715 0.01228 23.882943 0.063445 29.92659 0.125867L676.416142 374.357522zM715.400015 174.270461c-8.755408-0.227174-18.835997-0.428765-29.92659-0.630357l0 76.44302c3.053546 0 5.878894 0 8.099469 0 8.706289 0 15.84692 0.014326 21.827121 0.038886L715.400015 174.270461z"  horiz-adv-x="1024" />

    
    <glyph glyph-name="renqun" unicode="&#59126;" d="M590 159.6C590 159.6 590 159.6 590 159.6c0.2-0.4 0.5-0.8 0.7-1.1-0.1 0.5-0.1 0.9-0.2 1.6L590 159.6zM590 159.6C590 159.6 590 159.6 590 159.6 590 159.6 590 159.6 590 159.6L590 159.6zM590.7 158.5c-0.2 0.3-0.5 0.7-0.7 1.1C590.4 154.5 591.5 152.8 590.7 158.5zM874.4 112C938.2 157.1 980 231.4 980 315.6c0 104.7-64.6 194.2-156 231.3l0-6.7C781.8 672.3 658.1 768 512 768c-146.1 0-269.8-95.7-312-227.8l0 6.7c-91.4-37-156-126.6-156-231.3 0-84.2 41.8-158.5 105.6-203.6-48.4-68-79.8-149-87.6-236.8-1.5-3.7-2.4-7.7-2.4-11.9 0-17.2 14-31.2 31.2-31.2 17.2 0 31.2 14 31.2 31.2l1.6 0c3.8 123.4 99.3 223 106.7 250 7.5 27-30.3 40.5-30.3 40.5-55.9 32.4-93.6 92.7-93.6 161.9 0 63.1 31.5 118.5 79.4 152.4-0.8-9.1-1.4-18.3-1.4-27.7 0-120.9 65.7-226.1 163.2-282.8-53.8-79.6-85.2-175.5-85.2-278.8 0-4.2 0.2-8.3 0.3-12.5-0.1-1-0.3-2.1-0.3-3.1 0-17.2 14-31.2 31.2-31.2 17.2 0 31.2 14 31.2 31.2l0.8 0c-0.2 5.2-0.8 10.3-0.8 15.6 29.7 216.1 76.6 224.3 107.3 276.5 4.1 15.3-4 30.8-18.2 36.7 0.6 0.5 1 1 1.7 1.5C316.9 232.1 246.8 328 246.8 440.4c0 146.5 118.7 265.2 265.2 265.2 146.5 0 265.2-118.7 265.2-265.2 0-111.8-69.4-207.2-167.3-246.2-18.6-7.3-20.5-25.8-19.9-34.6l0.5 0.5c0.1-0.7 0.1-1.1 0.2-1.6 0 0 0 0 0 0 26-61.4 78.6-73.8 107.6-295.3l0.8 0c0-17.2 14-31.2 31.2-31.2 17.2 0 31.2 14 31.2 31.2 0 1.1-0.2 2.1-0.3 3.1 0.1 4.1 0.3 8.3 0.3 12.5 0 103.2-31.4 199-85 278.5 97.5 56.7 163 162.2 163 283.1 0 9.3-0.6 18.5-1.4 27.7 47.9-33.9 79.4-89.3 79.4-152.4 0-69.2-37.7-129.5-93.6-161.9 0 0-45.7-19.3-30.3-40.5 50.5-37.5 108.3-188.8 108.3-250 0-15 14-31.2 31.2-31.2 17.2 0 31.2 14 31.2 31.2 0 4.2-0.9 8.2-2.4 11.9C954.2-37 922.8 43.9 874.4 112zM659.2 331.5c11.1 33.1-41.1 47.2-52.1 14.4-25.4-76-164.7-76-190.2 0-11 32.8-63.2 18.8-52.1-14.4C407.7 203.5 616.3 203.5 659.2 331.5z"  horiz-adv-x="1024" />

    
    <glyph glyph-name="17" unicode="&#59072;" d="M887.466667-25.6 147.911111-25.6l0 68.266667 739.555556 0L887.466667-25.6zM517.688889 793.6 101.364622 497.777778l74.353778 0 341.936356 239.968711L858.908444 497.777778 932.977778 497.777778 517.688889 793.6zM557.511111 163.043556 557.511111 445.667556c13.084444 5.688889 23.665778 16.270222 29.354667 29.354667L448.512 475.022222c5.688889-13.084444 16.270222-23.665778 29.354667-29.354667l0-282.624c-13.084444-5.688889-23.665778-16.270222-29.354667-29.354667l138.353778 0C581.176889 146.773333 570.595556 157.354667 557.511111 163.043556zM352.711111 163.043556 352.711111 445.667556c13.084444 5.688889 23.665778 16.270222 29.354667 29.354667L243.712 475.022222c5.688889-13.084444 16.270222-23.665778 29.354667-29.354667l0-282.624c-13.084444-5.688889-23.665778-16.270222-29.354667-29.354667l138.353778 0C376.376889 146.773333 365.795556 157.354667 352.711111 163.043556zM762.311111 163.043556 762.311111 445.667556c13.084444 5.688889 23.665778 16.270222 29.354667 29.354667L653.312 475.022222c5.688889-13.084444 16.270222-23.665778 29.354667-29.354667l0-282.624c-13.084444-5.688889-23.665778-16.270222-29.354667-29.354667l138.353778 0C785.976889 146.773333 775.395556 157.354667 762.311111 163.043556zM802.133333 497.777778l-284.444444 204.8-284.444444-204.8L802.133333 497.777778zM830.577778 110.933333 204.8 110.933333l0-45.511111 625.777778 0L830.577778 110.933333z"  horiz-adv-x="1024" />

    
    <glyph glyph-name="meishi" unicode="&#58881;" d="M125.8 139.6l772.4 0c34.1 0 61.8 27.6 61.8 61.6 0 34-27.7 61.6-61.8 61.6l-1.8 0C878 452 724.8 601.4 534.1 614.2c13.3 8.6 22.2 23.6 22.2 40.6 0 26.7-21.7 48.4-48.6 48.4-26.8 0-48.6-21.7-48.6-48.4 0-17 8.8-32 22.2-40.6-190.8-12.8-344-162.4-362.3-351.6-30.9-3.4-55-29.5-55-61.2C64 167.2 91.7 139.6 125.8 139.6zM507.7 676.8c12.2 0 22.1-9.9 22.1-22s-9.9-22-22.1-22-22.1 9.9-22.1 22S495.5 676.8 507.7 676.8zM134.6 236.5l582.6 0c7.3 0 13.2 5.9 13.2 13.2s-5.9 13.2-13.2 13.2L149.9 262.9c18 180.6 170.4 321.7 355.8 321.7s337.7-141 355.8-321.7l-73.6 0c-7.3 0-13.2-5.9-13.2-13.2s5.9-13.2 13.2-13.2l105.9 0c19.5 0 35.3-15.8 35.3-35.2s-15.8-35.2-35.3-35.2L134.6 166.1c-19.5 0-35.3 15.8-35.3 35.2S115.1 236.5 134.6 236.5zM935.5 95.6 84.1 95.6c-8.7 0-15.7-6.9-15.7-15.4 0-8.5 7-15.4 15.7-15.4l851.4 0c8.7 0 15.7 6.9 15.7 15.4C951.2 88.7 944.2 95.6 935.5 95.6zM377.4 527.1c-1.8 0-3.5-0.4-5-1l-1.7 2.9c-55.2-27-102.7-67.4-138.5-116.8l1.9-0.8c-1.5-2.1-2.3-4.7-2.3-7.5 0-7.3 5.9-13.2 13.2-13.2 6.3 0 11.5 4.4 12.9 10.3l1.1-0.5c31.5 42.1 72.5 76.5 119.7 100.4 6.7 0.7 11.9 6.2 11.9 13.1C390.6 521.2 384.7 527.1 377.4 527.1z"  horiz-adv-x="1024" />

    
    <glyph glyph-name="chengshi" unicode="&#58889;" d="M168.265143 21.979429 131.693714 21.979429 131.693714 583.277714 349.293714 583.277714 349.293714 203.044571 312.722286 203.044571 312.722286 546.706286 168.265143 546.706286ZM711.241143 128.036571 674.669714 128.036571 674.669714 727.734857 418.304 727.734857 418.304 203.044571 381.732571 203.044571 381.732571 764.306286 711.241143 764.306286ZM829.732571 21.979429 793.161143 21.979429 793.161143 397.714286 692.955429 397.714286 692.955429 434.285714 829.732571 434.285714ZM528.018286 40.265143l346.038857 0 0-36.571429-346.038857 0 0 36.571429ZM580.571429 529.334857l-146.285714 0 0 146.285714 146.285714 0L580.571429 529.334857zM470.857143 565.906286l73.142857 0 0 73.142857-73.142857 0L470.857143 565.906286zM580.571429 348.342857l-146.285714 0 0 146.285714 146.285714 0L580.571429 348.342857zM470.857143 384.914286l73.142857 0 0 73.142857-73.142857 0L470.857143 384.914286zM296.265143 365.714286l-111.542857 0 0 111.542857 111.542857 0L296.265143 365.714286zM221.293714 402.285714l38.4 0 0 38.4-38.4 0L221.293714 402.285714z"  horiz-adv-x="1024" />

    
    <glyph glyph-name="wangguan" unicode="&#58888;" d="M462.480634 147.390082l457.1635 0 91.204946 356.223948L820.534874 315.811316l-119.316436 306.320978L577.98683 315.811316 385.29531 499.163876 462.480634 147.390082zM462.480634 147.390082M652.908373 654.778229c0-12.724311 5.238006-25.371214 14.234646-34.367854 9.000081-8.99836 21.645263-14.234646 34.367854-14.234646 12.724311 0 25.369493 5.236285 34.367854 14.234646 8.99664 8.99664 14.236366 21.641822 14.236366 34.367854 0 12.726031-5.239726 25.371214-14.236366 34.367854-8.99836 8.99664-21.643543 14.234646-34.367854 14.234646-12.722591 0-25.367773-5.238006-34.367854-14.234646C658.146378 680.149442 652.908373 667.50426 652.908373 654.778229L652.908373 654.778229zM652.908373 654.778229M327.790781 530.923908c0-12.724311 5.238006-25.371214 14.234646-34.367854 9.000081-8.99836 21.645263-14.234646 34.367854-14.234646 12.724311 0 25.369493 5.236285 34.367854 14.234646 8.99664 8.99664 14.236366 21.641822 14.236366 34.367854 0 12.726031-5.239726 25.371214-14.236366 34.367854-8.99836 8.99664-21.643543 14.234646-34.367854 14.234646-12.722591 0-25.367773-5.238006-34.367854-14.234646C333.028786 556.295122 327.790781 543.64994 327.790781 530.923908L327.790781 530.923908zM327.790781 530.923908M965.685257 536.084505c0-12.724311 5.238006-25.371214 14.232926-34.367854 9.000081-8.99836 21.645263-14.234646 34.367854-14.234646 12.724311 0 25.369493 5.236285 34.367854 14.234646 8.99664 8.99664 14.236366 21.641822 14.236366 34.367854 0 12.726031-5.239726 25.371214-14.236366 34.367854-8.99836 8.99664-21.643543 14.234646-34.367854 14.234646-12.722591 0-25.367773-5.238006-34.367854-14.234646C970.923263 561.455718 965.685257 548.810536 965.685257 536.084505L965.685257 536.084505zM965.685257 536.084505"  horiz-adv-x="1449" />

    
    <glyph glyph-name="weixin" unicode="&#58884;" d="M683.517777 379.959425C673.386119 379.959425 663.075262 390.12348 663.075262 400.509262 663.075262 410.748234 673.349672 421.059095 683.517777 421.059095 698.98609 421.059095 709.256453 410.748234 709.256453 400.509262 709.256453 390.12348 698.98609 379.959425 683.517777 379.959425M570.41522 379.959425C560.211681 379.959425 549.862347 390.12348 549.862347 400.509262 549.862347 410.748234 560.211681 421.059095 570.41522 421.059095 586.025277 421.059095 596.157945 410.748234 596.157945 400.509262 596.157945 390.12348 586.025277 379.959425 570.41522 379.959425M801.809173 354.213663C801.809173 436.41604 719.535923 503.408277 627.124947 503.408277 529.277077 503.408277 452.262529 436.384652 452.262529 354.213663 452.262529 271.792597 529.312514 205.022086 627.124947 205.022086 647.60391 205.022086 668.268151 210.144104 688.817988 215.29751L745.202714 184.361892 729.739465 235.771409C771.020364 266.781947 801.809173 307.85023 801.809173 354.213663M359.674371 518.840145C344.246554 518.840145 328.703318 529.151002 328.703318 544.547434 328.703318 560.014736 344.246554 570.218274 359.674371 570.218274 375.106236 570.218274 385.349262 560.050169 385.349262 544.547434 385.349262 529.151002 375.106236 518.840145 359.674371 518.840145M503.569788 570.218274C519.11201 570.218274 529.312514 560.014736 529.312514 544.547434 529.312514 529.151002 519.11201 518.840145 503.569788 518.840145 488.208794 518.840145 472.741492 529.151002 472.741492 544.547434 472.741492 560.050169 488.173357 570.218274 503.569788 570.218274M614.093616 514.481519C620.773805 514.481519 627.346676 513.975289 633.954981 513.252395 616.162066 596.103756 527.607534 657.64594 426.484366 657.64594 313.457744 657.64594 220.868574 580.639492 220.868574 482.787572 220.868574 426.322858 251.657384 379.959425 303.146884 343.942289L282.593 282.103455 354.485529 318.124643C380.192818 313.078556 400.813525 307.85023 426.484366 307.85023 432.950929 307.85023 439.338516 308.13878 445.654224 308.609572 441.663118 322.371898 439.302068 336.748785 439.302068 351.745292 439.338516 441.573495 516.458361 514.481519 614.093616 514.481519M511.996538 894.651452C238.349895 894.651452 16.493931 672.80104 16.493931 399.191869 16.493931 125.491101 238.345732-96.31629 511.996538-96.31629 785.654285-96.31629 1007.506085 125.491101 1007.506085 399.191869 1007.506085 672.80104 785.654285 894.651452 511.996538 894.651452M511.240469 868.11292C769.41386 868.11292 979.454028 658.115711 979.454028 399.947865 979.454028 141.731516 769.41386-68.292023 511.240469-68.292023 253.029665-68.292023 42.989498 141.731516 42.989498 399.947865 42.989498 658.115711 253.029665 868.11292 511.240469 868.11292"  horiz-adv-x="1024" />

    
    <glyph glyph-name="fangdajing" unicode="&#59026;" d="M869.897715-93.313026 869.897715-93.313026c-18.936975 0.992445-37.476972 9.55968-51.832596 25.503215l-175.459417 202.883103c-7.177812 7.971768-10.568229 15.745047-14.157135 19.730931-54.611441-27.520314-116.003717-39.494071-180.58792-39.907154-200.731934 10.519915-358.445309 189.686203-347.329928 401.780322C115.433496 728.573021 287.223483 890.47077 491.742812 879.752366c98.472269-5.160713 187.18637-51.585793 255.375585-127.317588 64.401819-75.533306 97.313545-172.20307 91.954343-274.462734-4.962224-94.684874-43.812514-183.795953-103.997751-245.204333 3.588906-3.985884 7.177812-7.971768 10.766718-11.957652l175.459417-202.883103c25.122342-27.901188 22.938964-69.562532-8.749619-94.486385C900.593853-87.326147 885.047295-94.106981 869.897715-93.313026zM472.623453 804.798422C316.943281 805.36168 188.799528 679.154502 180.066014 512.509123c-8.932003-170.432774 112.693823-313.527618 275.551807-322.062643 162.857984-8.535025 298.775016 121.062569 307.707019 291.495343 4.366757 83.322689-21.962623 160.658501-75.796214 220.44676-50.046195 59.58977-124.007694 97.646104-199.755594 101.615883C480.198243 804.401444 476.410848 804.599933 472.623453 804.798422z"  horiz-adv-x="1024" />

    
    <glyph glyph-name="basket" unicode="&#58880;" d="M1093.818503 428.705717 20.256634 428.705717C9.060846 428.705717 0 437.76546 0 448.962351L0 569.014808c0 11.195788 9.060846 20.255972 20.256634 20.255972l1073.561869 0c11.197442 0 20.256634-9.060184 20.256634-20.255972l0-120.052457C1114.075136 437.76546 1105.015945 428.705717 1093.818503 428.705717L1093.818503 428.705717zM40.512605 469.218323l1033.05136 0 0 79.540403L40.512605 548.758725 40.512605 469.218323 40.512605 469.218323zM905.579277-127.999779 208.535128-127.999779c-49.374131 0-91.864494 36.832409-98.827461 85.672225L39.919168 446.093223c-1.582427 11.078314 6.111968 21.344014 17.190281 22.926883 11.076769 1.681039 21.344014-6.112519 22.926442-17.18973l69.7885-488.44019c4.133768-29.019547 29.374507-50.877911 58.710738-50.877911l697.044148 0c29.278101 0 54.517846 21.878881 58.672573 50.877911l69.789051 488.44019c1.581434 11.077211 11.828604 18.792122 22.90427 17.18973 11.077872-1.582868 18.792563-11.848569 17.211349-22.926883l-69.787948-488.44019C997.36358-91.186784 954.874871-127.999779 905.579277-127.999779L905.579277-127.999779zM914.877608 269.644325 835.395997 269.644325c-11.197442 0-20.256634 9.059191-20.256634 20.255531s9.059302 20.256634 20.256634 20.256634l79.481611 0c11.195236 0 20.254427-9.060294 20.254427-20.256634S926.072844 269.644325 914.877608 269.644325L914.877608 269.644325zM755.873353 269.644325l-79.560258 0c-11.195236 0-20.254427 9.059191-20.254427 20.255531s9.059191 20.256634 20.254427 20.256634l79.560258 0c11.197442 0 20.256634-9.060294 20.256634-20.256634S767.070796 269.644325 755.873353 269.644325L755.873353 269.644325zM596.833581 269.644325l-79.511834 0c-11.196229 0-20.255972 9.059191-20.255972 20.255531s9.059743 20.256634 20.255972 20.256634l79.511834 0c11.195236 0 20.254427-9.060294 20.254427-20.256634S608.028817 269.644325 596.833581 269.644325L596.833581 269.644325zM437.760938 269.644325l-79.520989 0c-11.195788 0-20.25542 9.059191-20.25542 20.255531s9.059632 20.256634 20.25542 20.256634l79.520989 0c11.196891 0 20.256634-9.060294 20.256634-20.256634S448.957828 269.644325 437.760938 269.644325L437.760938 269.644325zM278.679691 269.644325l-79.520438 0c-11.196339 0-20.257075 9.059191-20.257075 20.255531s9.060736 20.256634 20.257075 20.256634l79.520438 0c11.195788 0 20.256082-9.060294 20.256082-20.256634S289.875478 269.644325 278.679691 269.644325L278.679691 269.644325zM914.877608 150.382089 835.395997 150.382089c-11.197442 0-20.256634 9.060184-20.256634 20.256523 0 11.195236 9.059302 20.255531 20.256634 20.255531l79.481611 0c11.195236 0 20.254427-9.060294 20.254427-20.255531C935.132035 159.442273 926.072844 150.382089 914.877608 150.382089L914.877608 150.382089zM755.873353 150.382089l-79.560258 0c-11.195236 0-20.254427 9.060184-20.254427 20.256523 0 11.195236 9.059191 20.255531 20.254427 20.255531l79.560258 0c11.197442 0 20.256634-9.060294 20.256634-20.255531C776.129987 159.442273 767.070796 150.382089 755.873353 150.382089L755.873353 150.382089zM596.833581 150.382089l-79.511834 0c-11.196229 0-20.255972 9.060184-20.255972 20.256523 0 11.195236 9.059743 20.255531 20.255972 20.255531l79.511834 0c11.195236 0 20.254427-9.060294 20.254427-20.255531C617.088008 159.442273 608.028817 150.382089 596.833581 150.382089L596.833581 150.382089zM437.760938 150.382089l-79.520989 0c-11.195788 0-20.25542 9.060184-20.25542 20.256523 0 11.195236 9.059632 20.255531 20.25542 20.255531l79.520989 0c11.196891 0 20.256634-9.060294 20.256634-20.255531C458.017571 159.442273 448.957828 150.382089 437.760938 150.382089L437.760938 150.382089zM278.679691 150.382089l-79.520438 0c-11.196339 0-20.257075 9.060184-20.257075 20.256523 0 11.195236 9.060736 20.255531 20.257075 20.255531l79.520438 0c11.195788 0 20.256082-9.060294 20.256082-20.255531C298.935773 159.442273 289.875478 150.382089 278.679691 150.382089L278.679691 150.382089zM914.877608 31.061502 835.395997 31.061502c-11.197442 0-20.256634 9.060294-20.256634 20.256634 0 11.195236 9.059302 20.255531 20.256634 20.255531l79.481611 0c11.195236 0 20.254427-9.060294 20.254427-20.255531C935.132035 40.121797 926.072844 31.061502 914.877608 31.061502L914.877608 31.061502zM755.873353 31.061502l-79.560258 0c-11.195236 0-20.254427 9.060294-20.254427 20.256634 0 11.195236 9.059191 20.255531 20.254427 20.255531l79.560258 0c11.197442 0 20.256634-9.060294 20.256634-20.255531C776.129987 40.121797 767.070796 31.061502 755.873353 31.061502L755.873353 31.061502zM596.833581 31.061502l-79.511834 0c-11.196229 0-20.255972 9.060294-20.255972 20.256634 0 11.195236 9.059743 20.255531 20.255972 20.255531l79.511834 0c11.195236 0 20.254427-9.060294 20.254427-20.255531C617.088008 40.121797 608.028817 31.061502 596.833581 31.061502L596.833581 31.061502zM437.760938 31.061502l-79.520989 0c-11.195788 0-20.25542 9.060294-20.25542 20.256634 0 11.195236 9.059632 20.255531 20.25542 20.255531l79.520989 0c11.196891 0 20.256634-9.060294 20.256634-20.255531C458.017571 40.121797 448.957828 31.061502 437.760938 31.061502L437.760938 31.061502zM278.679691 31.061502l-79.520438 0c-11.196339 0-20.257075 9.060294-20.257075 20.256634 0 11.195236 9.060736 20.255531 20.257075 20.255531l79.520438 0c11.195788 0 20.256082-9.060294 20.256082-20.255531C298.935773 40.121797 289.875478 31.061502 278.679691 31.061502L278.679691 31.061502zM914.638468 483.163668c-6.011811 0-11.945968 2.650946-15.94351 7.734766L669.667916 782.198495c-6.923146 8.802292-5.380539 21.521715 3.400685 28.445413 8.822257 6.903733 21.522266 5.380539 28.447508-3.402891l229.028254-291.298957c6.921933-8.803285 5.379436-21.522266-3.401788-28.445964C923.423001 484.587698 918.992514 483.163668 914.638468 483.163668L914.638468 483.163668zM685.5726 693.438959c-55.823299 0-101.280741 45.438139-101.280741 101.281403C584.291859 850.562523 629.7493 896 685.5726 896c55.862126 0 101.279748-45.437477 101.279748-101.279638C786.852348 738.877098 741.434726 693.438959 685.5726 693.438959L685.5726 693.438959zM685.5726 855.487946c-33.511364 0-60.76968-27.258317-60.76968-60.767584 0-33.510371 27.258317-60.768687 60.76968-60.768687 33.509378 0 60.768687 27.258317 60.768687 60.768687C746.341287 828.22963 719.081978 855.487946 685.5726 855.487946L685.5726 855.487946zM199.416152 483.163668c-4.371254 0-8.78343 1.405168-12.502454 4.332426-8.782879 6.923698-10.325927 19.642679-3.401678 28.445964L412.540164 807.241016c6.903733 8.78343 19.623155 10.346444 28.445413 3.402891 8.782879-6.923698 10.325927-19.64312 3.402229-28.445413L215.360214 490.898435C211.363885 485.814614 205.429618 483.163668 199.416152 483.163668L199.416152 483.163668zM428.464261 693.438959c-55.842713 0-101.280741 45.438139-101.280741 101.281403C327.18352 850.562523 372.621548 896 428.464261 896c55.842161 0 101.28019-45.437477 101.28019-101.279638C529.744451 738.877098 484.306422 693.438959 428.464261 693.438959L428.464261 693.438959zM428.464261 855.487946c-33.509268 0-60.768136-27.258317-60.768136-60.767584 0-33.510371 27.258868-60.768687 60.768136-60.768687 33.509268 0 60.767584 27.258317 60.767584 60.768687C489.231845 828.22963 461.973529 855.487946 428.464261 855.487946L428.464261 855.487946z"  horiz-adv-x="1115" />

    
    <glyph glyph-name="dingwei" unicode="&#58914;" d="M247.122819 422.184671c67.347874-166.273954 238.124376-294.960849 245.3745-302.31228l18.981307-19.258623 19.003819 19.23304c7.088442 7.17747 174.134992 131.618667 243.019873 296.429293 15.31787 31.479969 24.674982 65.205071 27.823696 100.248192 1.154289 10.078543 1.687432 18.454304 1.687432 26.334785 0 4.956895-0.251733 9.188266-0.777713 12.856819-3.261277 74.553996-34.712593 144.117328-88.654132 196.057281-54.481845 52.444443-126.181841 81.328283-201.901383 81.328283-154.506956 0-281.622052-119.913067-290.411229-273.432533-0.877997-4.53427-1.279133-9.884115-1.279133-16.809851 0-13.243629 1.26583-27.03268 3.880377-42.128493C227.84066 473.599667 235.661789 447.180971 247.122819 422.184671zM273.643845 549.390841l0.660032 2.431376 0.13917 2.89391c6.229888 126.179794 110.438275 225.021963 237.239216 225.021963 128.174218 0 232.411257-100.007715 237.302661-227.680513l0.084934-1.930979 0.322341-1.821485c0.010233-0.059352 0.26299-1.49198 0.26299-5.446036 0-5.884011-0.441045-12.422937-1.38044-20.577664l-0.067538-0.689708c-2.563382-28.901237-10.296507-56.678884-22.985504-82.57467l-0.677429-1.49198c-51.551096-123.874285-167.368892-210.618928-213.023698-260.06713C465.259978 227.668489 346.870614 317.614034 296.36943 442.752102l-0.515746 1.193175c-9.511631 20.615527-15.977903 42.421158-19.22076 64.813145l-0.119727 0.762363c-2.095731 12.015661-3.157923 23.233144-3.157923 33.339316C273.35425 547.031097 273.567098 548.888398 273.643845 549.390841zM789.713534 141.435499c-2.806929 21.36868-21.13639 37.917588-43.259246 37.917588l-97.057523 0-16.585747-41.46539 118.982882 0 63.74072-131.636063L208.463334 6.251633l63.74072 131.636063 118.983905 0-16.58677 41.46539-97.052406 0c-22.12388 0-40.453341-16.548908-43.261293-21.330818L144.298965 12.975778l0-21.145599c0-24.058952 19.573801-43.633776 43.6348-43.633776l648.134517 0c24.060999 0 43.63173 19.574824 43.63173 43.633776l0 4.557806L789.713534 141.435499zM512.000512 399.796778c67.677379 0 122.733299 55.056943 122.733299 122.732276 0 67.677379-55.056943 122.734322-122.733299 122.734322-67.678402 0-122.736369-55.057967-122.736369-122.734322C389.26312 454.853721 444.32211 399.796778 512.000512 399.796778zM512.000512 591.901027c38.251186 0 69.37095-31.119765 69.37095-69.37402 0-38.250162-31.119765-69.368904-69.37095-69.368904-38.252209 0-69.372997 31.118741-69.372997 69.368904C442.627515 560.782286 473.748303 591.901027 512.000512 591.901027z"  horiz-adv-x="1024" />

    
    <glyph glyph-name="icon2" unicode="&#59206;" d="M48.146557-216.062662M409.556816 464.792071l-40.932248 0c0 68.687382-55.881728 124.56911-124.56911 124.56911L35.867906 589.361181l0 40.932248 208.187553 0C335.313905 630.294452 409.556816 556.050518 409.556816 464.792071zM69.502957-363.865939M1013.371942 164.406676l-40.932248 0L972.439694 316.989817c0 68.687382-55.880705 124.56911-124.568087 124.56911L69.502957 441.558927l0 40.932248 778.367627 0c91.257423 0 165.500335-74.243935 165.500335-165.501358L1013.370919 164.406676zM69.502957 310.733323l883.246279 0 0-40.932248-883.246279 0 0 40.932248ZM69.502957 179.473837c0-8.321526-9.162684-15.06716-20.466124-15.06716l0 0c-11.30344 0-20.466124 6.745634-20.466124 15.06716L28.570709 746.005824c0 8.321526 9.162684 15.06716 20.466124 15.06716l0 0c11.30344 0 20.466124-6.745634 20.466124-15.06716L69.502957 179.473837z"  horiz-adv-x="1029" />

    
    <glyph glyph-name="xinlang-copy" unicode="&#58882;" d="M512.033 893.75c-281.532 0-509.744-228.153-509.744-509.75 0-281.532 228.212-509.744 509.744-509.744s509.679 228.284 509.679 509.744c0 281.597-228.147 509.75-509.679 509.75zM851.728 44.234c-44.1-44.1-95.437-78.78-152.644-102.946-59.184-25.057-122.061-37.755-186.986-37.755-64.853 0-127.795 12.698-187.051 37.755-57.207 24.166-108.615 58.774-152.716 102.946-44.1 44.1-78.78 95.573-102.946 152.781-25.122 59.119-37.82 122.132-37.82 186.986s12.698 127.73 37.755 186.986c24.166 57.207 58.846 108.544 102.946 152.716 44.1 44.1 95.508 78.78 152.709 102.946 59.255 24.986 122.197 37.748 187.051 37.748 64.925 0 127.795-12.769 186.979-37.748 57.207-24.166 108.544-58.846 152.644-102.946 44.1-44.172 78.78-95.508 103.083-152.716 24.986-59.19 37.748-122.061 37.748-186.986s-12.834-127.932-37.748-186.986c-24.226-57.136-58.906-108.609-103.006-152.781zM683.375 394.253c-9.605 2.884-16.194 4.845-11.155 17.47 10.892 27.404 12.023 51.051 0.205 67.916-22.147 31.648-82.746 29.935-152.205 0.858 0 0.035-21.81-9.548-16.24 7.756 10.686 34.346 9.078 63.121-7.551 79.727-37.687 37.71-137.899-1.423-223.829-87.331-64.354-64.369-101.723-132.58-101.723-191.563 0-112.825 144.678-181.418 286.219-181.418 185.55 0 308.979 107.806 308.979 193.398-0.005 51.711-43.559 81.056-82.7 93.187v0zM457.474 148.105c-112.944-11.147-210.438 39.908-217.776 114.064-7.332 74.138 78.307 143.286 191.236 154.452 112.956 11.167 210.453-39.884 217.776-114.010 7.323-74.179-78.276-143.331-191.236-154.507v0zM806.594 600.722c-44.811 49.679-110.906 68.622-171.906 55.649h-0.028c-14.112-3.023-23.116-16.907-20.093-30.997 3.009-14.106 16.892-23.117 31.008-20.105 43.401 9.214 90.367-4.263 122.22-39.555 31.823-35.291 40.47-83.421 26.838-125.614l0.009-0.009c-4.438-13.745 3.078-28.446 16.838-32.893 13.706-4.434 28.438 3.070 32.887 16.783l0.009 0.101c19.122 59.354 7.040 127.011-37.782 176.639M737.782 538.625c-21.806 24.197-54.012 33.388-83.737 27.066-12.151-2.589-19.891-14.546-17.287-26.706 2.596-12.109 14.546-19.888 26.667-17.253v-0.027c14.53 3.073 30.287-1.407 40.946-13.215 10.674-11.829 13.543-27.95 8.966-42.094h0.022c-3.81-11.803 2.652-24.496 14.469-28.321 11.814-3.783 24.5 2.662 28.309 14.492 9.338 28.914 3.498 61.872-18.356 86.059M468.757 359.555c-53.745 13.984-114.487-12.803-137.833-60.157-23.775-48.3-0.787-101.913 53.514-119.44 56.244-18.137 122.541 9.659 145.591 61.791 22.733 50.96-5.651 103.429-61.273 117.806v0zM427.723 236.215c-10.927-17.43-34.322-25.067-51.939-17.023-17.364 7.906-22.493 28.148-11.566 45.145 10.79 16.926 33.401 24.461 50.889 17.131 17.693-7.542 23.344-27.655 12.617-45.252v0zM463.711 282.402c-3.953-6.749-12.686-10-19.526-7.186-6.725 2.767-8.834 10.321-5.012 16.957 3.934 6.606 12.33 9.827 19.035 7.164 6.821-2.493 9.273-10.132 5.504-16.934v0z"  horiz-adv-x="1024" />

    
    <glyph glyph-name="bofang" unicode="&#58943;" d="M515.939 862.49c-264.266 2.156-480.295-210.273-482.441-474.538-2.166-264.266 210.274-480.233 474.541-482.44 264.265-2.156 480.232 210.274 482.46 474.538 2.211 264.265-210.294 480.232-474.56 482.44zM944.643 380.412c-1.976-238.884-197.297-431.031-436.244-429.053-238.949 1.974-431.084 197.287-429.109 436.232 2.040 238.884 197.276 431.028 436.244 429.053 238.949-1.975 431.084-197.286 429.109-436.232zM699.281 397.349l-260.677 215.488c-12.382 10.292-31.179 1.552-31.307-14.612l-0.297-426.771c-0.107-16.048 15.271-25.084 27.844-15.027l264.202 211.231c9.452 7.602 9.579 21.97 0.233 29.691z"  horiz-adv-x="1024" />

    
    <glyph glyph-name="classify_zuanleishipin" unicode="&#58921;" d="M819.2 795.733h-614.4l-136.533-238.933 443.2-582.4 443.2 582.4zM512.384 677.451l84.395-85.451h-170.901zM608.064 523.733l-97.493-350.347-97.461 350.347zM560.949 725.429l2.059 2.037h177.013l-91.659-90.549zM375.296 637.963l-88.363 89.504h178.944zM324.768 592h-157.76l57.824 101.184zM342.251 523.733l93.952-337.696-257.003 337.696zM678.923 523.733h164.811l-259.808-341.333zM700.021 592l100.128 98.912 56.085-98.912z"  horiz-adv-x="1024" />

    
    <glyph glyph-name="jingqu" unicode="&#58883;" d="M856.401 175.636H154.49c-13.84 0-25.073-11.23-25.073-25.07 0-13.843 11.233-25.072 25.073-25.072h701.912c13.84 0 25.072 11.23 25.072 25.072 0 13.84-11.231 25.07-25.072 25.07z m0 0M781.198 75.358H229.693c-13.84 0-25.07-11.226-25.07-25.067 0-13.839 11.23-25.068 25.07-25.068h551.504c13.833 0 25.063 11.23 25.063 25.068 0.001 13.84-11.23 25.067-25.062 25.067z m0 0M855.377 336.399c2.104-0.548 4.23-0.976 6.389-0.976 7.851 0.023 15.544 3.663 20.434 10.482 32.285 44.982 49.384 97.92 49.384 153.104 0 145.144-118.08 263.22-263.22 263.22-104.216 0-199.54-63.276-241.026-158.433l-38.232 53.523c-4.836 6.797-11.63 10.354-21.183 10.508-8.351-0.275-16.046-4.69-20.462-11.79L96.774 254.954c-7.344-11.757-3.756-27.225 7.95-34.548 4.136-2.61 8.75-3.81 13.265-3.81 8.347 0 16.518 4.159 21.281 11.778L370.1 597.672l228.896-320.434a25.1 25.1 0 0 1 19.455-10.477c7.84-0.604 15.216 3.036 20.206 8.971l105.04 126.053 131.379-175.16c8.28-11.078 23.992-13.29 35.072-5.01 11.08 8.292 13.34 24.014 5.019 35.067l-59.79 79.717z m-18.179 24.29l-72.427 96.547c-4.61 6.143-11.747 9.853-19.398 10.03-7.852 0.132-15.017-3.129-19.909-8.993l-104.556-125.48-163.713 229.212c5.49 2.682 10.075 7.197 12.461 13.332 31.457 81.804 111.29 136.751 198.705 136.751 117.493 0 213.089-95.583 213.089-213.08 0-44.627-13.841-87.47-39.992-123.895-3.157-4.369-4.206-9.402-4.26-14.424z m0 0"  horiz-adv-x="1024" />

    
    <glyph glyph-name="huo" unicode="&#58885;" d="M473.696 896s280.898-132.788 311.541-594.993c0 0 104.698 104.698 109.805 155.771 0 0 125.127-296.219-10.214-431.561-135.342-135.342-240.040-153.217-240.040-153.217s84.269 117.466 28.090 181.307c-56.18 63.84-173.646 114.913-127.681 252.808 0 0-217.057-112.359-229.825-201.736s22.983-181.307 102.145-232.379c2.554 2.554-314.095 68.948-339.631 326.863-25.536 255.362 163.431 240.040 176.2 423.9 0 0 33.197-112.359 30.643-209.397 0 0 143.002 140.449 163.431 199.182 22.983 58.733 58.733 240.040 25.536 283.451z"  horiz-adv-x="1024" />

    
    <glyph glyph-name="qq" unicode="&#58886;" d="M512 896a512 512 0 1 1 512-512A512 512 0 0 1 512 896z m0-975.238095a463.238095 463.238095 0 1 0 463.238095 463.238095 463.238095 463.238095 0 0 0-463.238095-463.238095zM660.48 466.651429v1.706666A151.161905 151.161905 0 0 1 512 627.809524a151.161905 151.161905 0 0 1-148.48-159.451429v-1.706666a66.31619 66.31619 0 0 1-15.11619-63.634286 191.634286 191.634286 0 0 1-53.394286-107.032381 70.460952 70.460952 0 0 1 7.314286-38.521905c7.314286-9.752381 27.550476 1.950476 42.179047 33.158095a199.68 199.68 0 0 1 34.377143-64.609523A43.641905 43.641905 0 0 1 345.478095 164.571429a67.047619 67.047619 0 0 1 60.464762-24.380953c58.514286 0 84.358095 15.847619 96.060953 26.819048a16.091429 16.091429 0 0 0 20.23619 0c11.459048-10.971429 37.546667-26.819048 96.060952-26.819048a67.047619 67.047619 0 0 1 60.464762 24.380953 43.641905 43.641905 0 0 1-33.401904 61.683809 199.43619 199.43619 0 0 1 34.377142 64.609524c14.384762-31.207619 34.620952-42.910476 42.179048-33.158095a70.460952 70.460952 0 0 1 7.314286 38.521904 191.634286 191.634286 0 0 1-53.394286 107.032381 66.072381 66.072381 0 0 1-15.36 63.390477z"  horiz-adv-x="1024" />

    
    <glyph glyph-name="fanchuan" unicode="&#59142;" d="M755.6-84H187.1l-13.7 9-36.9 84 12.2 21 751.1 78.8 12.7-24.9L766.8-79l-11.2-5z m-558.7 30h552l115.3 128.8-692-72.6 24.7-56.2zM204.9 95.7c-10.2 0-19.6 0.1-28.1 0.2-19 0.3-34 1-44.6 2-14.6 1.4-26.1 3.2-30.4 13.4-2.7 6.2-1.1 13.4 3.9 18.3 15.8 16.4 231.6 326.3 373 530.7 3.7 5.4 10.5 7.7 16.8 5.8s10.5-7.8 10.5-14.3v-533c0-8-6.3-14.6-14.3-15-0.9 0-93.4-4.3-185.5-6.6-39.7-1-73.6-1.5-101.3-1.5z m-63.1 31.4c22.4-1.5 70.8-2.4 175.1 0.3 66.5 1.8 131.2 4.4 159.1 5.7V603.8c-33.4-48.2-92.9-134.1-153-220.2-114.9-164.8-161.5-229.9-181.2-256.5zM543 103.9c-3.6 0-7.1 1.3-9.9 3.7-3.3 2.8-5.1 7-5.1 11.3V774.8c0 5.2 2.7 10.1 7.2 12.8 4.5 2.7 10.1 2.9 14.7 0.5 92.6-48.5 167.3-111.8 222-187.9 43.8-61 74.8-130.3 92.3-206 15.5-67.2 17.1-127.1 15.8-165.6-1.5-42.6-6.7-69-7.3-70.7-1.8-5.4-6.5-9.3-12.2-10.1L545.1 104c-0.7-0.1-1.4-0.1-2.1-0.1zM558 749.5v-613.4l287.5 39.8c4.1 28.6 12.6 113.2-11.1 213.8-16.8 71.4-46.3 136.7-87.8 194.2C699.2 649.6 635.8 705.2 558 749.5zM266 791.9c-2 0-4.1 0.4-6.1 1.3-7.6 3.4-11 12.2-7.6 19.8 13.8 30.9 59.4 40.8 139.5 30.2 54.4-7.2 104.7-21.3 106.8-21.9 8-2.2 12.6-10.5 10.4-18.5-2.2-8-10.5-12.6-18.5-10.4-0.5 0.1-50.6 14.2-102.9 21.1-89.6 11.8-105.2-6.7-107.9-12.7-2.5-5.6-8-8.9-13.7-8.9z"  horiz-adv-x="1024" />

    
    <glyph glyph-name="shipin" unicode="&#59068;" d="M412.371 247.729L636.76 359.924c20.645 10.323 20.645 39.831 0 50.153L412.371 522.27c-18.68 9.312-40.615-4.207-40.615-25.076v-224.389c0-20.867 21.935-34.387 40.615-25.076zM876.912 721.584H147.088c-46.169 0-83.866-38.034-83.866-84.539V133.01c0-46.729 37.417-84.595 83.866-84.595h729.825c46.17 0 83.866 38.033 83.866 84.595V637.044c-0.001 46.674-37.417 84.54-83.867 84.54zM231.514 132.842c0-15.65-12.005-28.329-28.33-28.329h-55.536c-15.651 0-28.329 12.005-28.329 28.329v55.535c0 15.652 12.004 28.331 28.329 28.331h55.592c15.595 0 28.274-12.005 28.274-28.331v-55.535z m0 224.391c0-15.652-12.005-28.331-28.33-28.331h-55.536c-15.651 0-28.329 12.005-28.329 28.331v55.535c0 15.652 12.004 28.329 28.329 28.329h55.592c15.595 0 28.274-12.005 28.274-28.329v-55.535z m0 224.388c0-15.652-12.005-28.329-28.33-28.329h-55.536c-15.651 0-28.329 12.004-28.329 28.329v55.536c0 15.651 12.004 28.329 28.329 28.329h55.592c15.595 0 28.274-12.005 28.274-28.329v-55.536z m504.875-477.107H287.61V665.487h448.778v-560.973z m168.294 28.328c0-15.65-12.007-28.329-28.331-28.329H820.76c-15.596 0-28.274 12.005-28.274 28.329v55.535c0 15.652 12.005 28.331 28.331 28.331h55.592c15.596 0 28.274-12.005 28.274-28.331v-55.535z m0 224.391c0-15.652-12.007-28.331-28.331-28.331H820.76c-15.596 0-28.274 12.005-28.274 28.331v55.535c0 15.652 12.005 28.329 28.331 28.329h55.592c15.596 0 28.274-12.005 28.274-28.329v-55.535z m0 224.388c0-15.652-12.007-28.329-28.331-28.329H820.76c-15.596 0-28.274 12.004-28.274 28.329v55.536c0 15.651 12.005 28.329 28.331 28.329h55.592c15.596 0 28.274-12.005 28.274-28.329v-55.536z"  horiz-adv-x="1024" />

    
    <glyph glyph-name="shijian" unicode="&#58894;" d="M513-52c-59.6 0-117.5 11.7-171.9 34.7-52.7 22.3-99.9 54.1-140.6 94.8-40.6 40.6-72.5 87.9-94.8 140.5-23.1 54.5-34.8 112.4-34.8 172.1s11.8 117.6 34.9 172.1c22.3 52.7 54.2 99.9 94.8 140.6 40.6 40.6 87.9 72.5 140.6 94.8 54.5 23.1 112.4 34.8 172.1 34.8 59.7 0 117.6-11.7 172.1-34.8 52.7-22.3 99.9-54.2 140.6-94.8s72.5-87.9 94.8-140.6c23.1-54.5 34.8-112.4 34.8-172.1 0-84-23.6-165.7-68.3-236.2-4.7-7.5-14.6-9.7-22.1-5s-9.7 14.6-5 22.1c41.4 65.4 63.3 141.1 63.3 219 0 55.4-10.8 109.1-32.2 159.7-20.7 48.8-50.2 92.7-87.9 130.4S721.9 747.4 673 768c-50.6 21.4-104.3 32.2-159.7 32.2-55.4 0-109.1-10.8-159.7-32.2-48.8-20.7-92.7-50.3-130.4-87.9-37.7-37.7-67.3-81.6-87.9-130.4-21.4-50.6-32.2-104.3-32.2-159.6 0-55.4 10.8-109.1 32.2-159.6 20.7-48.8 50.2-92.7 87.9-130.4s81.5-67.3 130.4-87.9c50.5-21.4 104.2-32.2 159.5-32.2h0.2c47.8 0 94.6 8.1 139.1 24.2 43 15.5 82.9 38 118.6 66.9 6.9 5.6 16.9 4.5 22.5-2.4s4.5-16.9-2.4-22.5c-38.5-31.1-81.6-55.4-127.9-72.1-48-17.3-98.4-26-149.9-26-0.2-0.1-0.2-0.1-0.3-0.1zM479.2 354.2c-8.8 0-16 7.2-16 16v248c0 8.8 7.2 16 16 16s16-7.2 16-16v-248c0-8.8-7.1-16-16-16zM727.2 354.2h-248c-8.8 0-16 7.2-16 16s7.2 16 16 16h248c8.8 0 16-7.2 16-16s-7.1-16-16-16z"  horiz-adv-x="1024" />

    
    <glyph glyph-name="mudedi" unicode="&#58887;" d="M514.56 413.013333c72.533333 0 131.413333 58.88 131.413333 130.56S587.093333 674.133333 514.56 674.133333s-131.413333-58.88-131.413333-130.56 58.88-130.56 131.413333-130.56z m0 226.986667c52.906667 0 96.426667-42.666667 96.426667-95.573333 0-52.906667-43.52-95.573333-96.426667-95.573334-52.906667 0-96.426667 42.666667-96.426667 95.573334C418.133333 596.48 461.653333 640 514.56 640z m274.773333-418.133333l-28.16-26.453334c33.28-20.48 56.32-40.96 56.32-67.413333 0-64-116.053333-121.173333-261.973333-129.706667-13.653333-0.853333-28.16-1.706667-42.666667-1.706666-14.506667 0-29.013333 0.853333-42.666666 1.706666-145.92 8.533333-261.973333 65.706667-261.973334 129.706667 0 26.453333 23.04 46.933333 56.32 67.413333L237.226667 221.866667c-41.813333-27.306667-66.56-57.173333-66.56-93.866667 0-92.16 153.6-170.666667 343.04-170.666667 14.506667 0 28.16 0.853333 42.666666 1.706667 168.96 10.24 300.373333 83.626667 300.373334 168.96-0.853333 36.693333-25.6 66.56-67.413334 93.866667zM500.906667 103.253333l12.8-11.946666 36.693333 37.546666c8.533333 9.386667 87.04 93.866667 93.013333 101.546667l7.68 8.533333c68.266667 81.066667 112.64 150.186667 131.413334 203.946667l8.533333 23.04 0.853333 2.56c0 1.706667 6.826667 42.666667 6.826667 64.853333 0 152.746667-128 276.48-285.866667 276.48S226.986667 686.08 226.986667 533.333333c0-31.573333 5.12-61.44 16.213333-90.453333 47.786667-134.826667 249.173333-331.093333 257.706667-339.626667z m12.8 672.426667c138.24 0 250.026667-108.373333 250.026666-241.493333 0-17.066667-5.12-50.346667-5.973333-58.026667l-7.68-21.333333c-17.92-50.346667-59.733333-115.2-125.44-192.853334l-7.68-8.533333c-4.266667-5.12-57.173333-62.293333-92.16-99.84l-11.946667-11.946667c-45.226667 45.226667-197.973333 204.8-236.373333 314.026667-9.386667 25.6-13.653333 52.053333-13.653333 79.36 0 132.266667 112.64 240.64 250.88 240.64z"  horiz-adv-x="1024" />

    
    <glyph glyph-name="xunzhang" unicode="&#59405;" d="M784.8 831.9H242.6c-30.7 0-55.7-24.9-55.7-55.7v-180.5c0-18.6 9.3-36 24.8-46.3l177.1-117.9C306.6 387 250.6 299.9 250.6 200c0-145.1 118-263.1 263.1-263.1 145 0 263 118 263 263.1 0 99.9-56 186.9-138.2 231.5l177.1 117.9c15.5 10.3 24.8 27.7 24.8 46.3V776.2c0 30.8-24.9 55.7-55.6 55.7z m-63.8-632c0-114.6-92.8-207.4-207.4-207.4-114.6 0-207.4 92.8-207.4 207.4 0 114.5 92.8 207.4 207.4 207.4 114.6 0 207.4-92.9 207.4-207.4z m63.8 395.8L678.7 525V631c0 10.2-8.3 18.5-18.6 18.5-10.2 0-18.6-8.3-18.6-18.5v-130.7l-66.9-44.6c-19.6 4.7-40 7.2-61 7.2s-41.4-2.6-61-7.2L384.5 501V631c0 10.2-8.3 18.5-18.6 18.5s-18.6-8.3-18.6-18.5v-105.2l-104.9 69.9V776.2h104.9v-49.7c0-10.2 8.3-18.6 18.6-18.6 10.2 0 18.6 8.3 18.6 18.6v49.7h257v-49.7c0-10.2 8.3-18.6 18.6-18.6s18.6 8.3 18.6 18.6v49.7h106.1v-180.5zM480.4 345.6L449.5 283l-69.1-10c-14-2-25.6-11.8-30-25.3-4.4-13.4-0.7-28.2 9.4-38.1l50-48.7-11.8-68.8c-2.4-13.9 3.3-28 14.8-36.3 6.5-4.7 14.1-7.1 21.8-7.1 5.9 0 11.8 1.4 17.3 4.3l61.8 32.5 61.8-32.5c5.4-2.8 11.4-4.3 17.3-4.3 7.7 0 15.3 2.4 21.8 7.1 11.4 8.3 17.2 22.4 14.8 36.3L617.5 161l50 48.8c10.1 9.9 13.8 24.6 9.4 38-4.4 13.4-16 23.2-30 25.3l-69.1 10-30.8 62.5c-6.3 12.7-19.2 20.7-33.3 20.7-14.1 0-27-8-33.3-20.7z m72.8-96.5l88.4-12.8-64-62.3 15.1-88-79 41.5-79-41.5 15.1 88-63.9 62.3 88.4 12.8 39.5 80.1 39.4-80.1z"  horiz-adv-x="1024" />

    
    <glyph glyph-name="dangdiwanle-qidaxiang" unicode="&#58900;" d="M877.145 676.809l-237.837 40.545s10.641-39.472 10.69-81.78l0.332-220.345s-3.262-51.076-96.041-53.175c-92.78-2.099-99.277 57.786-96.028 59.566l-0.344 89.309s1.245 12.475 14.016 13.298 14.018-13.994 14.018-13.994l0.81-88.723s5.445-33.93 68.89-33.757 65.986 31.444 65.986 31.444l0.69 245.697s3.56 81.708-89.544 103.62c0 0-11.154 6.117-43.944 6.104l-161.72 0.1s-141.373-4.25-163.125-173.35c0 0-3.904-30.635-3.95-52.454s-0.32-381.394-0.32-381.394-1.524-25.183-30.312-31.667c0 0-31.923-4.236-39.565 31.821l-0.7 104.291s-3.161 39.499-44.279 42.937c0 0-38.113 0.028-44.731-42.951L1.55 160.826s7.623-67.567 74.837-97.607 124.718 8.08 133.084 14.943 41.99 31.527 49.118 79.912c0 0 1.862 2.678 1.862 43.61l0.515 66.723s6.676 34.006 43.235 35.149 43.238-35.17 43.238-35.17v-248.167s7.836-32.878 37.758-26.331l172.021 14.973s25.168 5.3 25.168 29.82V212.253s5.074 15.654 20.21 15.654 158.989-0.218 158.989-0.218 11.91-1.456 17.257-15.436-0.553 0-0.553 0l0.775-164.53s2.317-28.792 38.514-27.807l143.097-19.625 32.4-4.443s29.726 3.411 30.313 30.263V520.231c0.003 0-5.54 126.19-146.244 156.578zM330.603 628.36l-12.112-13.907c-14.089 12.317-30.033 2.377-30.033 2.377-16.833-10.546-8.114-29.65-8.114-29.65l-13.901-4.378c-7.803-1.974-13.457 3.38-13.457 3.38-5.914 22.25 8.947 42.178 8.947 42.178 24.18 26.226 57.986 15.612 57.986 15.612 16.674-5.234 10.684-15.612 10.684-15.612z"  horiz-adv-x="1024" />

    
    <glyph glyph-name="renwendaguan" unicode="&#58974;" d="M202.32965169333346 198.8250770033776c-101.50695293179507 0-136.75354518373948-39.025581505650294-136.75354518373948-97.61562927471857s35.129763524602666-97.62012096581104 136.75354518373948-97.62012096581104c101.50695293179507 0 136.75803950771066 39.03007582962147 136.75803950771066 97.62012096581104s-35.25108657591556 97.61562927471857-136.75803950771066 97.61562927471857z m742.1375992049956 507.76842211365874H866.3082451747505c-11.67397360410817 0-19.568957954510438-7.782649947031686-19.568960587389164-19.568957954510438v-97.61562927471857h-39.025581505650294v136.75803950771066c0 11.66947928013701-7.7781556230605275 19.564466263417998-19.56446363053927 19.564466263417998h-78.16350004754989c-11.67397360410817 0-19.568957954510438-7.7781556230605275-19.568957954510438-19.564466263417998v-97.62012096581104h-38.90875277830856v97.62012096581104c0 11.66947928013701-7.7781556230605275 19.564466263417998-19.564466263417998 19.564466263417998h-78.16799173864233c-11.66947928013701 0-19.564466263417998-7.7781556230605275-19.564466263417998-19.564466263417998v-97.62012096581104h-39.025581505650294v58.59453946016073c0 11.67397360410817-7.782649947031686 19.568957954510438-19.568957954510438 19.568960587389164h-78.16350004754989c-11.67397360410817 0-19.564466263417998-7.782649947031686-19.56446363053927-19.568960587389164v-97.61562664183987h-38.79641574205926v78.16349741467117c0 58.59453946016073-35.1342578485738 97.61562927471857-136.75803950771066 97.61562927471857-101.50695293179507 0-136.75354518373948-39.025581505650294-136.75354781661824-97.61562927471857v-468.7383489169161c31.2429315586186 27.347113577570966 74.2721737575947 39.025581505650294 136.75354781661824 39.025581505650294s105.51061362512087-11.678467928079332 136.75803950771066-39.025581505650294v38.90875277830856h39.025581505650294v-97.62012096581104c0-11.67397360410817 7.782649947031686-19.568957954510438 19.56446363053927-19.568960587389164h78.16350004754989c11.67397360410817 0 19.568957954510438 7.782649947031686 19.568957954510438 19.568960587389164v136.75803950771066h39.025581505650294v-97.62012359868974c0-11.67397360410817 7.7781556230605275-19.568957954510438 19.568960587389164-19.568957954510438h78.04666868732943c11.67397360410817 0 19.564466263417998 7.782649947031686 19.564466263417998 19.568957954510438v97.62012359868974h39.025581505650294v-97.62012359868974c0-11.67397360410817 7.782649947031686-19.568957954510438 19.568957954510438-19.568957954510438h78.16350004754989c11.67397360410817 0 19.564466263417998 7.782649947031686 19.56446363053927 19.568957954510438v58.482205056790164h39.025581505650294v-97.62012096581104c0-11.67397360410817 7.782649947031686-19.568957954510438 19.568960587389164-19.568960587389164h78.16349741467117c11.67397360410817 0 19.568957954510438 7.782649947031686 19.568960587389164 19.568960587389164v546.8973546404949c-0.2336600875621996 11.67397360410817-8.016307401715169 19.456623551139863-19.80261804207265 19.45662091826114z m-566.3584725156059-429.60043037501663h-39.025581505650294v273.39475596410836h39.025581505650294v-273.39475596410836z m156.21016873487935 39.016595490586695h-39.025581505650294v273.39924765520067h39.025581505650294v-273.39924765520067z m156.32250577112868 0h-39.13791854189959v273.39924765520067h39.025581505650294v-273.39924765520067h0.11233703624929708z m156.21466305885053-39.016595490586695h-39.025581505650294v273.39475596410836h39.025581505650294v-273.39475596410836z"  horiz-adv-x="1024" />

    


  </font>
</defs>
</svg>
